<svg viewBox="0 0 480 480" xmlns="http://www.w3.org/2000/svg" xmlns:xlink="http://www.w3.org/1999/xlink" id="75051a7d-a5a3-4bc7-8498-2ddc5673f538" overflow="hidden"><style>
.MsftOfcThm_Accent4_Fill_v2 {
 fill:#FFC000; 
}
</style>
<g><path d="M102.334 360.161 92.636 360.161C92.636 297.972 102.381 236.167 121.515 176.995L130.992 147.687 140.696 147.687C140.696 147.687 152.229 190.094 134.095 269.028 115.961 347.962 102.334 360.161 102.334 360.161Z" class="st0" fill="#E6E6E6"/><path d="M164.409 360.161 102.33 360.161 102.33 360.161C102.33 297.972 112.075 236.167 131.209 176.995L140.686 147.687 164.409 147.687 164.409 360.161Z" class="st1" fill="#737373"/></g><g><path d="M154.716 310.653C154.716 319.198 161.643 326.124 170.187 326.124 178.731 326.124 185.658 319.197 185.658 310.653L185.658 201.321C185.658 201.321 180.896 194.894 170.629 194.894 160.362 194.894 154.715 201.321 154.715 201.321L154.715 310.653Z" class="MsftOfcThm_Accent4_Fill_v2" fill="#FFC000"/><rect x="154.716" y="119.839" width="30.943" height="81.483" class="st3" fill="#D2D2D2"/><path d="M161.362 194.562C160.47 194.562 159.746 193.838 159.746 192.946L159.746 131.552C159.746 130.66 160.469 129.936 161.362 129.936 162.255 129.936 162.978 130.66 162.978 131.552L162.978 192.946C162.977 193.838 162.254 194.562 161.362 194.562Z" class="st4" fill="#FFFFFF"/><path d="M161.362 251.916C160.47 251.916 159.746 251.192 159.746 250.3L159.746 231.72C159.746 230.828 160.469 230.104 161.362 230.104 162.255 230.104 162.978 230.828 162.978 231.72L162.978 250.3C162.977 251.192 162.254 251.916 161.362 251.916Z" class="st4" fill="#FFFFFF"/></g><g><path d="M198.036 310.653C198.036 319.198 204.963 326.124 213.507 326.124 222.051 326.124 228.978 319.197 228.978 310.653L228.978 263.207C228.978 263.207 224.229 255.961 213.696 255.961 203.163 255.961 198.035 263.207 198.035 263.207L198.035 310.653Z" class="MsftOfcThm_Accent4_Fill_v2" fill="#FFC000"/><rect x="198.036" y="119.839" width="30.943" height="143.368" class="st0" fill="#E6E6E6"/><path d="M205.181 194.562C204.289 194.562 203.565 193.838 203.565 192.946L203.565 131.552C203.565 130.66 204.288 129.936 205.181 129.936 206.074 129.936 206.797 130.66 206.797 131.552L206.797 192.946C206.797 193.838 206.074 194.562 205.181 194.562Z" class="st4" fill="#FFFFFF"/><path d="M205.181 295.537C204.289 295.537 203.565 294.813 203.565 293.921L203.565 275.341C203.565 274.449 204.288 273.725 205.181 273.725 206.074 273.725 206.797 274.449 206.797 275.341L206.797 293.921C206.797 294.814 206.074 295.537 205.181 295.537Z" class="st4" fill="#FFFFFF"/></g><g><path d="M243.418 310.653C243.418 319.198 250.345 326.124 258.889 326.124 267.433 326.124 274.36 319.197 274.36 310.653L274.36 233.296C274.36 233.296 270.095 227.028 258.895 227.028 247.695 227.028 243.417 233.296 243.417 233.296L243.417 310.653Z" class="MsftOfcThm_Accent4_Fill_v2" fill="#FFC000"/><rect x="243.418" y="119.839" width="30.943" height="113.457" class="st3" fill="#D2D2D2"/><path d="M252.383 194.562C251.491 194.562 250.767 193.838 250.767 192.946L250.767 131.552C250.767 130.66 251.49 129.936 252.383 129.936 253.276 129.936 253.999 130.66 253.999 131.552L253.999 192.946C253.999 193.838 253.276 194.562 252.383 194.562Z" class="st4" fill="#FFFFFF"/><path d="M252.383 260.801C251.491 260.801 250.767 260.077 250.767 259.185L250.767 240.605C250.767 239.713 251.49 238.989 252.383 238.989 253.276 238.989 253.999 239.713 253.999 240.605L253.999 259.185C253.999 260.078 253.276 260.801 252.383 260.801Z" class="st4" fill="#FFFFFF"/></g><g><path d="M287.77 201.321 287.77 310.652C287.77 319.197 294.697 326.123 303.241 326.123 311.786 326.123 318.712 319.196 318.712 310.652L318.712 201.321C318.712 201.321 315.029 194.894 303.563 194.894 292.096 194.895 287.77 201.321 287.77 201.321Z" class="MsftOfcThm_Accent4_Fill_v2" fill="#FFC000"/><rect x="287.77" y="119.839" width="30.943" height="81.483" class="st3" fill="#D2D2D2"/><path d="M296.203 194.562C295.311 194.562 294.587 193.838 294.587 192.946L294.587 131.552C294.587 130.66 295.31 129.936 296.203 129.936 297.096 129.936 297.819 130.66 297.819 131.552L297.819 192.946C297.819 193.838 297.095 194.562 296.203 194.562Z" class="st4" fill="#FFFFFF"/><path d="M296.203 251.916C295.311 251.916 294.587 251.192 294.587 250.3L294.587 231.72C294.587 230.828 295.31 230.104 296.203 230.104 297.096 230.104 297.819 230.828 297.819 231.72L297.819 250.3C297.819 251.192 297.096 251.916 296.203 251.916Z" class="st4" fill="#FFFFFF"/></g><rect x="126.803" y="201.038" width="226.702" height="18.566" class="st5" fill="#2F2F2F"/><g><path d="M325.288 360.161 315.59 360.161C315.59 297.972 325.335 236.167 344.469 176.995L353.946 147.687 363.65 147.687C363.65 147.687 375.183 190.094 357.049 269.028 338.917 347.961 325.288 360.161 325.288 360.161Z" class="st0" fill="#E6E6E6"/><path d="M387.363 360.161 325.284 360.161 325.284 360.161C325.284 297.972 335.029 236.167 354.163 176.995L363.64 147.687 387.363 147.687 387.363 360.161Z" class="st1" fill="#737373"/></g></svg>